<svg xmlns="http://www.w3.org/2000/svg" viewBox="0 0 100 100" width="100" height="100">
  <defs>
    <linearGradient id="houseGradient" x1="0%" y1="0%" x2="0%" y2="100%">
      <stop offset="0%" style="stop-color:#059669;stop-opacity:1" />
      <stop offset="100%" style="stop-color:#047857;stop-opacity:1" />
    </linearGradient>
    <linearGradient id="digitalGradient" x1="0%" y1="0%" x2="100%" y2="0%">
      <stop offset="0%" style="stop-color:#3B82F6;stop-opacity:1" />
      <stop offset="100%" style="stop-color:#1D4ED8;stop-opacity:1" />
    </linearGradient>
    <linearGradient id="backgroundGradient" x1="0%" y1="0%" x2="100%" y2="100%">
      <stop offset="0%" style="stop-color:#F0FDF4;stop-opacity:1" />
      <stop offset="100%" style="stop-color:#ECFDF5;stop-opacity:1" />
    </linearGradient>
  </defs>

  <!-- Background circle -->

  <circle cx="50" cy="50" r="48" fill="url(#backgroundGradient)" stroke="#D1FAE5" stroke-width="2"/>

  <!-- Main house/community building -->

  <g transform="translate(50, 45)">
    <!-- House base -->
    <rect x="-15" y="-5" width="30" height="20" fill="url(#houseGradient)" rx="2"/>


<!-- Roof -->
<path d="M-18 -5 L0 -18 L18 -5 Z" fill="#DC2626" stroke="#B91C1C" stroke-width="0.5"/>

<!-- Door -->
<rect x="-3" y="5" width="6" height="10" fill="#8B5CF6" rx="1"/>
<circle cx="2" cy="10" r="0.8" fill="white"/>

<!-- Windows -->
<rect x="-12" y="0" width="4" height="4" fill="#3B82F6" rx="0.5"/>
<rect x="8" y="0" width="4" height="4" fill="#3B82F6" rx="0.5"/>

<!-- Window frames -->
<line x1="-10" y1="0" x2="-10" y2="4" stroke="white" stroke-width="0.3"/>
<line x1="-12" y1="2" x2="-8" y2="2" stroke="white" stroke-width="0.3"/>
<line x1="10" y1="0" x2="10" y2="4" stroke="white" stroke-width="0.3"/>
<line x1="8" y1="2" x2="12" y2="2" stroke="white" stroke-width="0.3"/>


  </g>

  <!-- Digital elements - binary code pattern -->

  <g fill="#10B981" opacity="0.4" font-family="monospace" font-size="4">
    <text x="15" y="25">01</text>
    <text x="78" y="25">10</text>
    <text x="15" y="80">11</text>
    <text x="78" y="80">01</text>
  </g>

  <!-- Document/paper icons for admin functions -->

  <g transform="translate(25, 60)">
    <rect x="0" y="0" width="8" height="10" fill="white" stroke="#6B7280" stroke-width="0.8" rx="1"/>
    <line x1="1" y1="3" x2="7" y2="3" stroke="#6B7280" stroke-width="0.4"/>
    <line x1="1" y1="5" x2="7" y2="5" stroke="#6B7280" stroke-width="0.4"/>
    <line x1="1" y1="7" x2="5" y2="7" stroke="#6B7280" stroke-width="0.4"/>
  </g>

  <g transform="translate(67, 60)">
    <rect x="0" y="0" width="8" height="10" fill="white" stroke="#6B7280" stroke-width="0.8" rx="1"/>
    <line x1="1" y1="3" x2="7" y2="3" stroke="#6B7280" stroke-width="0.4"/>
    <line x1="1" y1="5" x2="7" y2="5" stroke="#6B7280" stroke-width="0.4"/>
    <line x1="1" y1="7" x2="5" y2="7" stroke="#6B7280" stroke-width="0.4"/>
  </g>

  <!-- Community members icons -->

  <g fill="#059669">
    <!-- Person 1 -->
    <circle cx="25" cy="35" r="3" fill="#F59E0B"/>
    <path d="M25 38 C22 38 20 40 20 42 L20 45 L30 45 L30 42 C30 40 28 38 25 38 Z" fill="#F59E0B"/>


<!-- Person 2 -->
<circle cx="75" cy="35" r="3" fill="#8B5CF6"/>
<path d="M75 38 C72 38 70 40 70 42 L70 45 L80 45 L80 42 C80 40 78 38 75 38 Z" fill="#8B5CF6"/>


  </g>

  <!-- Digital connection lines -->

  <g stroke="url(#digitalGradient)" stroke-width="1.5" opacity="0.6" fill="none">
    <path d="M30 40 Q40 35 50 35"/>
    <path d="M70 40 Q60 35 50 35"/>
    <path d="M50 55 Q40 65 30 65"/>
    <path d="M50 55 Q60 65 70 65"/>
  </g>

  <!-- Money/finance symbol -->

  <g transform="translate(85, 45)">
    <circle cx="0" cy="0" r="6" fill="#EAB308" stroke="#CA8A04" stroke-width="0.8"/>
    <text x="0" y="2" text-anchor="middle" fill="white" font-size="8" font-weight="bold">Rp</text>
  </g>

  <!-- Settings gear -->

  <g transform="translate(15, 45)">
    <circle cx="0" cy="0" r="5" fill="#6B7280" opacity="0.8"/>
    <circle cx="0" cy="0" r="3" fill="none" stroke="white" stroke-width="1"/>
    <g stroke="white" stroke-width="1">
      <line x1="0" y1="-5" x2="0" y2="-6"/>
      <line x1="0" y1="5" x2="0" y2="6"/>
      <line x1="5" y1="0" x2="6" y2="0"/>
      <line x1="-5" y1="0" x2="-6" y2="0"/>
    </g>
  </g>

  <!-- RT label -->

<text x="50" y="90" text-anchor="middle" fill="#047857" font-size="8" font-weight="bold" font-family="Arial, sans-serif">RT</text>
</svg>